<svg xmlns="http://www.w3.org/2000/svg" height="512pt" version="1.1" viewBox="0 0 512.00006 512" width="512pt">
<g id="surface1">
<path d="M 467.691406 0 L 14.769531 0 C 10.042969 0 5.601562 2.261719 2.824219 6.085938 C 0.0429688 9.90625 -0.738281 14.828125 0.722656 19.324219 L 59.078125 199.257812 L 59.078125 467.691406 C 59.078125 492.125 78.953125 512 103.382812 512 L 359.382812 512 C 383.816406 512 403.691406 492.125 403.691406 467.691406 L 403.691406 304.152344 L 488.910156 257.671875 C 503.152344 249.902344 512 234.996094 512 218.773438 L 512 44.308594 C 512 19.875 492.125 0 467.691406 0 Z M 359.382812 482.460938 L 103.382812 482.460938 C 95.242188 482.460938 88.617188 475.835938 88.617188 467.691406 L 88.617188 196.921875 C 88.617188 195.375 88.371094 193.839844 87.894531 192.367188 L 35.085938 29.539062 L 374.152344 29.539062 L 374.152344 467.691406 C 374.152344 475.835938 367.527344 482.460938 359.382812 482.460938 Z M 482.460938 218.773438 C 482.460938 224.179688 479.511719 229.148438 474.765625 231.738281 L 403.691406 270.503906 L 403.691406 29.539062 L 467.691406 29.539062 C 475.835938 29.539062 482.460938 36.164062 482.460938 44.308594 Z M 482.460938 218.773438 " style=" stroke:none;fill-rule:nonzero;fill:rgb(0%,0%,0%);fill-opacity:1;" />
<path d="M 196.921875 211.691406 C 205.078125 211.691406 211.691406 205.078125 211.691406 196.921875 C 211.691406 188.765625 205.078125 182.152344 196.921875 182.152344 L 128 182.152344 C 119.84375 182.152344 113.230469 188.765625 113.230469 196.921875 L 113.230469 433.230469 C 113.230469 452.234375 128.691406 467.691406 147.691406 467.691406 L 196.921875 467.691406 C 205.078125 467.691406 211.691406 461.078125 211.691406 452.921875 C 211.691406 444.765625 205.078125 438.152344 196.921875 438.152344 L 147.691406 438.152344 C 144.976562 438.152344 142.769531 435.945312 142.769531 433.230469 L 142.769531 379.078125 L 177.230469 379.078125 C 185.386719 379.078125 192 372.464844 192 364.308594 C 192 356.152344 185.386719 349.539062 177.230469 349.539062 L 142.769531 349.539062 L 142.769531 300.308594 L 177.230469 300.308594 C 185.386719 300.308594 192 293.695312 192 285.539062 C 192 277.382812 185.386719 270.769531 177.230469 270.769531 L 142.769531 270.769531 L 142.769531 211.691406 Z M 196.921875 211.691406 " style=" stroke:none;fill-rule:nonzero;fill:rgb(0%,0%,0%);fill-opacity:1;" />
</g>
</svg>